HIERARCHY
ROOT Hips
{
	OFFSET 0.00000 0.00000 0.00000
	CHANNELS 6 Xposition Yposition Zposition Yrotation Zrotation Xrotation 
	JOINT Lumbar
	{
		OFFSET 0 0 0
		CHANNELS 3 Zrotation Xrotation Yrotation
		JOINT Neck
		{
			OFFSET 0.00 0.2701 0.00
			CHANNELS 3 Zrotation Xrotation Yrotation
			End Site
			{
				OFFSET 0.00 0.1379 0.00
			}
		}
		JOINT RightShoulder
		{
			OFFSET 0.0119 0.2289 0.1181
			CHANNELS 3 Zrotation Xrotation Yrotation
			JOINT RightElbow
			{
				OFFSET 0.00 -0.1475 0.00
				CHANNELS 2 Zrotation Yrotation
				JOINT RightWrist
				{
					OFFSET 0.00 -0.1605 0.00
					CHANNELS 2 Zrotation Xrotation
					End Site
					{
						OFFSET 0.0040 -0.1068 0.0006
					}
				}
			}
		}
		JOINT LeftShoulder
		{
			OFFSET 0.0119 0.2289 -0.1181
			CHANNELS 3 Zrotation Xrotation Yrotation
			JOINT LeftElbow
			{
				OFFSET 0.00 -0.1475 0.00
				CHANNELS 2 Zrotation Yrotation
				JOINT LeftWrist
				{
					OFFSET 0.00 -0.1605 0.00
					CHANNELS 2 Zrotation Xrotation
					End Site
					{
						OFFSET 0.0040 -0.1068 -0.0006
					}
				}
			}
		}
	}
	JOINT RightHip
	{
		OFFSET 0.0316 -0.0424 0.0458
		CHANNELS 3 Zrotation Xrotation Yrotation
		JOINT RightKnee
		{
			OFFSET 0.00 -0.2438 0.00
			CHANNELS 1 Zrotation
			JOINT RightAnkle
			{
				OFFSET 0.00 -0.2449 0.00
				CHANNELS 3 Zrotation Xrotation Yrotation
				End Site
				{
					OFFSET 0.1237 -0.0542 0.0051
				}
			}
		}
	}
	JOINT LeftHip
	{
		OFFSET 0.0316 -0.0424 -0.0458
		CHANNELS 3 Zrotation Xrotation Yrotation
		JOINT LeftKnee
		{
			OFFSET 0.00 -0.2438 0.00
			CHANNELS 1 Zrotation
			JOINT LeftAnkle
			{
				OFFSET 0.00 -0.2449 0.00
				CHANNELS 3 Zrotation Xrotation Yrotation
				End Site
				{
					OFFSET 0.1237 -0.0542 -0.0051
				}
			}
		}
	}
}
MOTION
Frames: 30
Frame Time: 0.02
5e-05 -4e-05 0.00038 -179.07289 -40.81963 -1.44174 48.1489 1.36909 -5.95297 3.44617 0.28878 -0.12293 -22.14509 -2.29369 -15.93207 37.24236 170.30199 29.6399 11.93408 -26.43211 1.57708 12.92129 47.25417 -172.58468 37.64967 -11.85884 43.60756 1.31752 -3.55079 -19.25246 -6.20166 -3.95095 -2.66322 47.63615 3.20418 3.77629 -24.97494 -6.27275 2.83453 2.08822
6e-05 -4e-05 3e-05 -179.08357 -40.75673 -1.37394 48.19851 1.39347 -6.1744 3.24354 0.04849 -0.12446 -22.45524 -3.06954 -14.08965 37.14238 163.02546 27.59816 10.84793 -26.20009 2.8316 10.18471 47.19654 -165.87588 35.376 -10.80472 43.53447 1.22981 -3.95775 -19.25201 -6.1852 -3.88668 -2.62849 47.56311 3.1837 3.73953 -24.97351 -6.2766 2.84201 2.09246
6e-05 -3e-05 -0.00031 -179.09422 -40.69399 -1.30624 48.24805 1.41783 -6.3954 3.04129 -0.19147 -0.12599 -22.76484 -3.8429 -12.25425 37.04227 155.77137 25.56255 9.76519 -25.96894 4.0812 7.4593 47.13914 -159.1939 33.1115 -9.7547 43.4616 1.14239 -4.36316 -19.25157 -6.1688 -3.82261 -2.59388 47.49023 3.1633 3.70302 -24.97206 -6.28043 2.84944 2.09668
7e-05 -3e-05 -0.00066 -179.10487 -40.63128 -1.23864 48.29752 1.44215 -6.61618 2.83924 -0.43108 -0.12752 -23.07412 -4.61638 -10.41752 36.94254 148.51697 23.52701 8.68235 -25.73766 5.33161 4.73175 47.08168 -152.50723 30.84535 -8.70403 43.38874 1.05495 -4.76881 -19.25112 -6.15239 -3.75854 -2.55926 47.4174 3.1429 3.6664 -24.97063 -6.28426 2.85689 2.10091
8e-05 -3e-05 -0.00101 -179.11553 -40.56844 -1.17098 48.34701 1.46648 -6.8373 2.63689 -0.6709 -0.12905 -23.38375 -5.39232 -8.57382 36.84308 141.24092 21.48561 7.59619 -25.50548 6.58753 1.9916 47.02398 -145.79016 28.56879 -7.64875 43.31567 0.9672 -5.17617 -19.25065 -6.13594 -3.69425 -2.52451 47.34441 3.1224 3.62946 -24.96921 -6.2881 2.86438 2.10516
9e-05 -3e-05 -0.00136 -179.12615 -40.50592 -1.1032 48.39665 1.4909 -7.05804 2.43487 -0.91114 -0.13058 -23.69327 -6.16015 -6.75631 36.74157 134.03384 19.46241 6.52076 -25.27648 7.82392 -0.70296 46.96724 -139.18156 26.3295 -6.60975 43.24319 0.88047 -5.57747 -19.25027 -6.11964 -3.63065 -2.4902 47.2718 3.10221 3.59385 -24.96773 -6.29193 2.87172 2.10932
0.0001 -3e-05 -0.0017 -179.13687 -40.44282 -1.03575 48.44595 1.51508 -7.27927 2.23241 -1.15018 -0.13211 -24.00276 -6.94364 -4.88674 36.64438 126.69428 17.40438 5.42468 -25.04134 9.09761 -3.48494 46.90856 -132.36585 24.01902 -5.53968 43.16963 0.79181 -5.99039 -19.2497 -6.10305 -3.56576 -2.45506 47.19851 3.08145 3.55564 -24.96635 -6.29576 2.87933 2.11365
0.0001 -3e-05 -0.00205 -179.14743 -40.38023 -0.96795 48.49554 1.53955 -7.50013 2.03035 -1.3905 -0.13364 -24.31209 -7.71236 -3.06765 36.54307 119.47989 15.37928 4.34808 -24.81186 10.33808 -6.18874 46.85181 -125.73406 21.77173 -4.49726 43.09703 0.70486 -6.39285 -19.24934 -6.08672 -3.50203 -2.42066 47.12582 3.06117 3.51974 -24.96489 -6.2996 2.88671 2.11783
0.00012 -3e-05 -0.0024 -179.15807 -40.31833 -0.89986 48.54561 1.56413 -7.72035 1.82868 -1.63187 -0.13516 -24.62217 -8.46462 -1.29992 36.43716 112.40352 13.3903 3.29312 -24.58925 11.5336 -8.78798 46.79686 -119.35344 19.61088 -3.49232 43.02572 0.62028 -6.78161 -19.24912 -6.07073 -3.43977 -2.38723 47.05393 3.04162 3.48704 -24.96331 -6.30345 2.89376 2.12182
0.00012 -3e-05 -0.00273 -179.16909 -40.25269 -0.83385 48.59331 1.58736 -7.94368 1.62444 -1.86567 -0.13673 -24.9308 -9.31638 0.79443 36.35899 104.48778 11.18101 2.10709 -24.32694 12.97469 -11.96179 46.72984 -111.60683 16.98031 -2.28282 42.94731 0.52291 -7.24648 -19.24773 -6.05285 -3.3692 -2.34843 46.97765 3.0183 3.43706 -24.96236 -6.30722 2.90257 2.12685
0.00014 -3e-05 -0.0031 -179.17878 -40.1948 -0.76321 48.64572 1.61386 -8.16076 1.42589 -2.11637 -0.13819 -25.24061 -9.95512 2.1798 36.22153 98.37242 9.4447 1.20187 -24.1485 13.90606 -13.94076 46.6894 -106.69148 15.32307 -1.49781 42.88371 0.45198 -7.55249 -19.24902 -6.03891 -3.3161 -2.32084 46.9105 3.00268 3.42282 -24.96012 -6.31117 2.90775 2.12975
0.00021 -5e-05 -0.0036 -179.18895 -40.15951 -0.68171 48.71336 1.64633 -8.35749 1.24117 -2.40656 -0.13929 -25.57013 -10.033 1.77294 35.92652 96.98605 8.94708 1.03695 -24.20225 13.35427 -12.46123 46.71355 -110.04852 16.51198 -1.94882 42.86257 0.45862 -7.40345 -19.25589 -6.03632 -3.31198 -2.3252 46.86985 3.01056 3.51391 -24.95417 -6.31555 2.90199 2.12626
0.00031 -8e-05 -0.00415 -179.19695 -40.1318 -0.59518 48.78516 1.68281 -8.54809 1.06263 -2.71508 -0.14033 -25.89839 -9.89533 0.63238 35.57152 97.43509 8.93222 1.15789 -24.34019 12.30522 -9.8123 46.76594 -116.16199 18.64813 -2.81385 42.85599 0.49087 -7.09797 -19.26575 -6.03762 -3.32523 -2.34061 46.83822 3.02573 3.63985 -24.94706 -6.32013 2.89272 2.12073
0.0004 -0.0001 -0.00467 -179.20334 -40.09974 -0.50981 48.85373 1.71923 -8.74417 0.88228 -3.01961 -0.14139 -26.2157 -9.83735 -0.28101 35.23992 97.19703 8.7391 1.17001 -24.43785 11.54019 -7.81964 46.81085 -120.6769 20.2334 -3.44173 42.84152 0.50809 -6.8772 -19.27542 -6.03679 -3.3298 -2.35011 46.80139 3.03603 3.74474 -24.94046 -6.32468 2.88571 2.11652
0.00049 -0.00013 -0.00519 -179.22098 -40.0714 -0.42936 48.92856 1.74757 -8.9307 0.69722 -3.30552 -0.14234 -26.57912 -9.84479 -0.77461 34.92235 96.38967 8.38624 1.10078 -24.5428 10.5335 -5.30972 46.8332 -126.6299 22.31923 -4.27335 42.83233 0.53965 -6.60062 -19.28026 -6.03743 -3.33761 -2.36325 46.76875 3.05297 3.87048 -24.93351 -6.32897 2.87601 2.11075
0.00057 -0.00015 -0.00572 -179.21432 -40.03728 -0.33727 48.99056 1.7945 -9.13334 0.52409 -3.63497 -0.14366 -26.84937 -9.67902 -2.28218 34.56405 97.14337 8.46431 1.25981 -24.65428 9.90683 -3.58482 46.90925 -130.27568 23.59907 -4.78368 42.81576 0.54745 -6.40071 -19.29575 -6.03599 -3.34292 -2.37158 46.73012 3.05776 3.9626 -24.92756 -6.33385 2.87091 2.10764
0.00059 -0.00017 -0.00629 -179.14371 -39.98363 -0.21615 49.02219 1.88488 -9.40131 0.37676 -4.07614 -0.14468 -26.83472 -8.96616 -6.70831 34.08508 102.27577 9.75426 2.05656 -24.74761 10.50039 -4.44888 47.12615 -126.56427 22.31287 -4.2613 42.77344 0.48294 -6.47368 -19.34065 -6.02748 -3.33591 -2.36276 46.66864 3.02749 3.93913 -24.92227 -6.34029 2.88085 2.11317
0.00059 -0.00018 -0.00685 -179.04801 -39.92411 -0.0833 49.03929 1.99515 -9.68161 0.24223 -4.56088 -0.14634 -26.73096 -8.10833 -12.07799 33.57156 108.82627 11.43691 3.05981 -24.84733 11.48463 -6.11863 47.39595 -120.49174 20.20215 -3.40924 42.72339 0.39376 -6.62566 -19.39599 -6.01681 -3.326 -2.34893 46.6024 2.98478 3.88283 -24.92001 -6.34731 2.8953 2.12132
0.0006 -0.0002 -0.0074 -178.96235 -39.86856 0.04561 49.0595 2.10081 -9.94422 0.10556 -5.02876 -0.14856 -26.68707 -7.39773 -16.81436 33.08879 114.37811 12.84522 3.91619 -24.95452 12.25785 -7.33111 47.6422 -115.7054 18.54069 -2.73715 42.67824 0.3161 -6.72569 -19.44609 -6.00736 -3.3182 -2.33819 46.53991 2.94748 3.85145 -24.91603 -6.35406 2.9067 2.12774
0.00058 -0.00022 -0.00803 -178.88328 -39.80829 0.1695 49.09602 2.1878 -10.25967 -0.0463 -5.48632 -0.14713 -26.56378 -6.33968 -22.42187 32.54008 121.45821 14.66697 5.00159 -25.02149 13.1547 -8.88682 47.88844 -110.12089 16.60032 -1.95289 42.62833 0.23783 -6.88527 -19.49851 -5.99704 -3.30772 -2.32446 46.46755 2.91111 3.78088 -24.9072 -6.36084 2.9221 2.13633
0.00063 -0.00022 -0.00849 -178.7834 -39.75572 0.30572 49.0933 2.31848 -10.46551 -0.16369 -5.97364 -0.15353 -26.58166 -5.9693 -26.45189 32.12167 125.70717 15.72482 5.66136 -25.17184 13.89372 -9.93497 48.14555 -105.59534 15.02927 -1.31777 42.58559 0.1549 -6.94501 -19.54838 -5.98797 -3.30184 -2.31554 46.41887 2.8702 3.78141 -24.91704 -6.36771 2.93043 2.14112
0.00084 -0.00015 -0.0085 -178.64143 -39.73128 0.48037 49.00038 2.5636 -10.3876 -0.18774 -6.54758 -0.18077 -27.03655 -7.57418 -25.69566 32.06668 121.43924 14.48367 5.04062 -25.55813 14.10205 -9.38871 48.43101 -104.61259 14.70218 -1.17911 42.57046 0.06299 -6.68056 -19.59005 -5.98283 -3.30994 -2.32185 46.40012 2.8156 4.00631 -24.91011 -6.37465 2.91701 2.13414
0.00113 -6e-05 -0.00834 -178.4773 -39.71367 0.66561 48.86551 2.85208 -10.19495 -0.17761 -7.14661 -0.21596 -27.63116 -9.87044 -23.35142 32.14386 114.32595 12.4735 3.99264 -26.02666 14.14173 -8.31255 48.7231 -104.75222 14.76446 -1.19846 42.56148 -0.03238 -6.31863 -19.62855 -5.97905 -3.32267 -2.33305 46.41265 2.75749 4.3004 -24.93399 -6.3817 2.89667 2.12344
0.0014 1e-05 -0.00825 -178.31775 -39.68947 0.84126 48.74049 3.12177 -10.04036 -0.18425 -7.72469 -0.24797 -28.14603 -11.82337 -21.86307 32.16574 108.74165 10.87645 3.17539 -26.45198 14.25905 -7.47759 49.00494 -104.34137 14.63131 -1.14154 42.54598 -0.12505 -6.02186 -19.66756 -5.97463 -3.33272 -2.34142 46.43421 2.70385 4.54896 -24.9887 -6.38871 2.88009 2.11479
0.00159 0.00011 -0.00819 -178.18205 -39.68017 1.03762 48.65472 3.38893 -9.94536 -0.18601 -8.34638 -0.27832 -28.72921 -13.89058 -19.8473 32.17185 102.2272 9.03176 2.21337 -26.90095 14.38018 -6.65363 49.3202 -104.03401 14.55543 -1.09475 42.54669 -0.22382 -5.64172 -19.71081 -5.9701 -3.34477 -2.35197 46.35545 2.63809 4.85409 -24.85625 -6.39562 2.86057 2.10442
0.00195 0.00015 -0.00803 -177.98979 -39.64107 1.19304 48.47637 3.67058 -9.69921 -0.18898 -8.88039 -0.31382 -29.20088 -15.89025 -18.53327 32.23564 96.93674 7.50628 1.4459 -27.32168 14.45494 -5.68908 49.56547 -103.79113 14.45402 -1.06545 42.51429 -0.30978 -5.40849 -19.7444 -5.96632 -3.35421 -2.35949 46.49566 2.59631 5.06046 -25.11841 -6.40283 2.84609 2.09706
0.00276 -0 -0.00763 -177.6637 -39.52203 1.23454 48.06203 3.98819 -9.06032 -0.21287 -9.18548 -0.36318 -29.36176 -17.49749 -19.60199 32.48895 95.87953 7.12536 1.34322 -27.63155 14.38036 -4.29569 49.62594 -103.61263 14.27383 -1.07619 42.39669 -0.36479 -5.62732 -19.75148 -5.96267 -3.35166 -2.35491 47.21135 2.62653 4.95994 -26.48133 -6.41043 2.84183 2.09604
0.00372 -0.00022 -0.00714 -177.27854 -39.37223 1.23432 47.55464 4.3174 -8.27396 -0.23776 -9.39794 -0.41717 -29.40058 -19.02027 -21.41588 32.78587 96.11836 7.07786 1.44595 -27.91328 14.27153 -2.80031 49.61328 -103.44789 14.0454 -1.09643 42.24419 -0.40588 -5.99306 -19.74895 -5.96003 -3.34702 -2.34759 48.15013 2.67996 4.76209 -28.23456 -6.41846 2.84372 2.09864
0.00459 -0.0004 -0.00668 -176.90935 -39.23362 1.25176 47.08333 4.63707 -7.55713 -0.25588 -9.63953 -0.46801 -29.47474 -20.60688 -22.84731 33.0199 95.64985 6.82434 1.43813 -28.21518 14.22152 -1.46783 49.62761 -103.17525 13.78215 -1.09227 42.1026 -0.44952 -6.27605 -19.75123 -5.95802 -3.34577 -2.34322 49.00124 2.71978 4.61894 -29.79976 -6.42652 2.84652 2.10158
0.00555 -0.00062 -0.00622 -176.58488 -39.10619 1.27419 46.63536 4.97691 -6.82519 -0.29838 -9.93549 -0.52352 -29.63716 -22.11105 -24.41084 33.43369 95.57135 6.76739 1.48712 -28.4855 13.99631 0.34732 49.66986 -103.34453 13.75886 -1.17249 41.98197 -0.50847 -6.62203 -19.75179 -5.95149 -3.33443 -2.33188 49.79654 2.77309 4.42963 -31.42036 -6.43343 2.8341 2.09633
